<svg width="19" height="20" viewBox="0 0 19 20" fill="none" xmlns="http://www.w3.org/2000/svg">
<path d="M16.3249 7.46832C16.3249 7.46832 15.7819 14.2033 15.4669 17.0403C15.3169 18.3953 14.4799 19.1893 13.1089 19.2143C10.4999 19.2613 7.88794 19.2643 5.27994 19.2093C3.96094 19.1823 3.13794 18.3783 2.99094 17.0473C2.67394 14.1853 2.13394 7.46832 2.13394 7.46832M17.7082 4.23982H0.750244M14.4406 4.23982C13.6556 4.23982 12.9796 3.68482 12.8256 2.91582L12.5826 1.69982C12.4326 1.13882 11.9246 0.750824 11.3456 0.750824H7.11264C6.53364 0.750824 6.02564 1.13882 5.87564 1.69982L5.63264 2.91582C5.47864 3.68482 4.80264 4.23982 4.01764 4.23982" stroke="red" stroke-width="1.5" stroke-linecap="round" stroke-linejoin="round"/>
</svg>
