<svg width="21" height="21" viewBox="0 0 21 21" fill="none" xmlns="http://www.w3.org/2000/svg">
<path d="M9.49224 0.789119H5.75324C2.67824 0.789119 0.750244 2.96612 0.750244 6.04812V14.3621C0.750244 17.4441 2.66924 19.6211 5.75324 19.6211H14.5772C17.6622 19.6211 19.5812 17.4441 19.5812 14.3621V10.3341M13.1651 2.60262L17.7311 7.16862M6.82774 8.92102L14.3007 1.44802C15.2317 0.518019 16.7407 0.518019 17.6717 1.44802L18.8887 2.66502C19.8197 3.59602 19.8197 5.10602 18.8887 6.03602L11.3797 13.545C10.9727 13.952 10.4207 14.181 9.84474 14.181H6.09874L6.19274 10.401C6.20674 9.84502 6.43374 9.31502 6.82774 8.92102Z" stroke="#200E32" stroke-width="1.5" stroke-linecap="round" stroke-linejoin="round"/>
</svg>
