<svg width="24" height="24" viewBox="0 0 24 24" fill="none" xmlns="http://www.w3.org/2000/svg">
<path d="M11.2502 16.2695C11.2502 15.8555 11.5862 15.5135 12.0002 15.5135C12.4142 15.5135 12.7502 15.8445 12.7502 16.2585V16.2695C12.7502 16.6835 12.4142 17.0195 12.0002 17.0195C11.5862 17.0195 11.2502 16.6835 11.2502 16.2695Z" fill="#ad5918"/>
<path d="M4.7956 20.4179H19.2776C20.4246 20.3579 21.3066 19.3809 21.2476 18.2339C21.2346 18.0019 21.1846 17.7729 21.0966 17.5589L13.8196 4.82285C13.2636 3.81785 11.9986 3.45385 10.9936 4.01085C10.6516 4.19885 10.3696 4.48085 10.1806 4.82285L2.9036 17.5589C2.4716 18.6229 2.9836 19.8349 4.0466 20.2679C4.2626 20.3549 4.4906 20.4049 4.7226 20.4179" stroke="#ad5918" stroke-width="1.5" stroke-linecap="round" stroke-linejoin="round"/>
<path d="M11.9897 13.396V10.296" stroke="#ad5918" stroke-width="1.5" stroke-linecap="round" stroke-linejoin="round"/>
</svg>
